# xmcd
# Track frame offsets:
# 150
# 12477
# 22512
# 36305
# 50475
# 61320
# 73825
# 86332
# 100040
# 112802
# 125417
# 134542
# 149465
# 163140
#
# Disc length: 2328 seconds
# Revision: 2
# Processed by: cddbd v1.5.2PL0 Copyright (c) Steve Scherf et al.
# Submitted via: VisiTrax 2.11.3.279 - For more info visit www.synapsa.com
#
DISCID=bb09160e
DTITLE=Slim Dusty - Travelling Country Man
DYEAR=1977
DGENRE=Australian Country
TTITLE0=Slim Dusty - Travelling Country Man
TTITLE1=Slim Dusty - God's Own Singer Of Songs
TTITLE2=Slim Dusty - Althea
TTITLE3=Slim Dusty - Sadness And I Wander Home
TTITLE4=Slim Dusty - Spanish Pipe Dream
TTITLE5=Slim Dusty - If Those Lips Could Only Speak
TTITLE6=Slim Dusty - The Rose In Her Hair
TTITLE7=Slim Dusty - Streets Of Sydney
TTITLE8=Slim Dusty - Jesus Takes A Hold
TTITLE9=Slim Dusty - Big Time (Just Because You're In Deep Elem)
TTITLE10=Slim Dusty With Joy McKean - Foolin' Around
TTITLE11=Slim Dusty - I Broke A Promise
TTITLE12=Slim Dusty With Joy McKean - I Heard The Bluebird Sing
TTITLE13=Slim Dusty - Life Is Like A River
EXTD=1977 EMI (Australia) Ltd.
EXTT0=
EXTT1=
EXTT2=
EXTT3=
EXTT4=
EXTT5=
EXTT6=
EXTT7=
EXTT8=
EXTT9=
EXTT10=
EXTT11=
EXTT12=
EXTT13=
PLAYORDER=
